# xmcd
#
# Track frame offsets:
#	150
#	22257
#	44115
#	63550
#	82002
#	103010
#	128467
#	145597
#	166497
#	187982
#
# Disc length: 2757 seconds
#
# Revision: 1
# Processed by: cddbd v1.5.2PL0 Copyright (c) Steve Scherf et al.
# Submitted via: EZCDAudioConverter 8.0.2.1
#
DISCID=8b0ac30a
DTITLE=Various Artist - Vào Hạ
DYEAR=1998
DGENRE=Contemporary Pop
TTITLE0=Như Quỳnh - Vào Hạ
TTITLE1=Thiên Kim - Cafe đắng
TTITLE2=Don Hồ, Thanh Hà, Diễm Liên - Cát bụi tình xa
TTITLE3=Bảo Hân - Tìm đâu
TTITLE4=Trúc Linh, Trúc Lam - Đừng anh nhé
TTITLE5=Don Hồ - Mối duyên tình sâu
TTITLE6=Song Hằng - Chiều hôm nay
TTITLE7=Thiên Kim - Nỗi đau dĩ vãng
TTITLE8=Don Hồ - Giấc mơ ngày xưa
TTITLE9=Don Hồ - Hey Seniorita
EXTD=
EXTT0=
EXTT1=
EXTT2=
EXTT3=
EXTT4=
EXTT5=
EXTT6=
EXTT7=
EXTT8=
EXTT9=
PLAYORDER=
